<?xml version="1.0" standalone="no"?>
<!DOCTYPE svg PUBLIC "-//W3C//DTD SVG 20010904//EN"
 "http://www.w3.org/TR/2001/REC-SVG-20010904/DTD/svg10.dtd">
<svg version="1.0" xmlns="http://www.w3.org/2000/svg"
 width="1233.000000pt" height="1280.000000pt" viewBox="0 0 1233.000000 1280.000000"
 preserveAspectRatio="xMidYMid meet">
<g transform="translate(0.000000,1280.000000) scale(0.100000,-0.100000)"
fill="#000000" stroke="none">
<path d="M11675 12788 c-27 -5 -96 -18 -153 -29 -256 -48 -557 -176 -852 -361
-169 -106 -758 -491 -865 -566 -318 -221 -632 -580 -995 -1137 -215 -331 -459
-692 -641 -950 -350 -495 -537 -751 -557 -761 -12 -6 -31 -19 -42 -29 -32 -29
-23 -2 21 61 225 326 392 594 571 919 58 105 155 281 216 392 126 229 328 567
506 848 157 250 168 270 164 324 -2 35 -9 48 -31 65 -27 20 -40 21 -265 20
-261 -1 -326 -11 -458 -73 -165 -77 -405 -386 -673 -866 -86 -153 -108 -216
-195 -553 -90 -347 -177 -606 -274 -823 -46 -102 -56 -100 -48 12 21 278 25
378 26 624 0 149 -5 309 -10 355 -38 303 -119 326 -299 83 -93 -124 -168 -264
-207 -383 -39 -120 -39 -286 0 -480 53 -266 59 -313 59 -465 1 -112 -3 -166
-16 -214 -20 -75 -75 -191 -90 -191 -6 0 -43 -31 -83 -70 -39 -38 -80 -70 -89
-70 -9 0 -65 30 -123 67 -320 201 -727 371 -1082 451 -410 93 -772 111 -1240
61 -1277 -135 -2210 -656 -2813 -1571 -146 -221 -241 -403 -357 -679 -245
-584 -324 -1234 -229 -1884 63 -427 181 -810 407 -1310 173 -384 237 -618 263
-959 23 -303 -22 -654 -125 -973 -149 -460 -447 -976 -795 -1377 -53 -61 -89
-106 -81 -101 8 5 80 59 160 120 874 674 1640 1122 2188 1280 292 83 409 90
832 45 175 -19 533 -49 755 -64 180 -13 283 -14 565 -5 702 20 1074 78 1450
226 775 305 1374 899 1815 1798 243 497 366 898 406 1319 14 157 7 508 -15
652 -75 501 -258 964 -570 1439 -137 209 -219 317 -450 591 -16 19 -26 38 -22
41 3 3 56 -6 118 -21 392 -95 644 -59 688 98 23 83 -20 203 -105 291 -25 26
-44 53 -42 59 3 7 63 34 134 61 70 26 238 92 373 145 289 115 354 132 510 133
123 0 153 -5 360 -63 267 -75 421 -99 630 -100 209 0 304 24 378 94 59 55 64
73 56 207 -8 139 -20 130 128 98 93 -21 100 -21 205 -6 250 36 512 165 683
337 86 86 134 168 153 261 l13 63 79 33 c192 79 331 216 425 416 132 282 74
476 -180 600 -154 76 -355 122 -635 147 -66 6 -123 14 -128 19 -4 4 28 32 71
63 116 83 192 178 192 238 0 12 -25 55 -56 96 -30 42 -53 81 -51 87 2 7 40 12
108 13 266 5 405 120 455 375 32 163 0 231 -112 244 -74 8 -84 11 -84 27 0 7
106 159 236 338 225 312 322 463 360 560 9 25 21 49 26 55 28 32 -27 90 -119
125 -118 44 -428 78 -528 58z"/>
</g>
</svg>
